<svg xmlns="http://www.w3.org/2000/svg" xml:space="preserve" width="40" height="40" viewBox="0 0 905.119 905.119"><path d="M286.364 295.622c45.759 3.359 83.48 35.367 95.401 78.183.768 2.76 3.248 4.69 6.113 4.69h82.465a8.763 8.763 0 0 1 8.727 7.98l36.914 412.411a8.762 8.762 0 0 0 8.728 7.98h320.297c5.146 0 9.186-4.416 8.727-9.543l-60.46-675.62a8.76 8.76 0 0 0-8.727-7.981H662.472a4.874 4.874 0 0 1-4.854-4.492C652.689 48.103 601.657 0 539.265 0c-62.393 0-113.417 48.103-118.352 109.232a4.874 4.874 0 0 1-4.854 4.491H304.332a8.764 8.764 0 0 0-8.728 7.98l-14.97 167.159c-.309 3.458 2.268 6.506 5.73 6.76zm252.91-275.263c50.83 0 92.679 38.721 97.859 88.207.288 2.751-1.841 5.158-4.607 5.158H446.021c-2.766 0-4.895-2.407-4.606-5.158 5.18-49.486 47.029-88.207 97.859-88.207z"/><path d="M63.479 905.119H490.92c7.127 0 12.718-6.113 12.083-13.211l-43.231-483.012a12.131 12.131 0 0 0-12.083-11.05h-81.631c-3.188 0-5.884-2.394-6.223-5.563-4.677-43.643-41.517-77.664-86.414-77.664-44.89 0-81.737 34.013-86.415 77.664-.34 3.17-3.035 5.563-6.223 5.563h-74.072a12.131 12.131 0 0 0-12.083 11.05L51.397 891.908c-.636 7.098 4.956 13.211 12.082 13.211zm144.237-514.291c5.174-31.625 32.616-55.85 65.693-55.85 33.078 0 60.52 24.225 65.701 55.849.603 3.673-2.2 7.021-5.921 7.021H213.637c-3.72-.002-6.521-3.348-5.921-7.02z"/></svg>